<svg width="8" height="8" viewBox="0 0 8 8" fill="none" xmlns="http://www.w3.org/2000/svg">
<path id="icon" d="M3.36471 7.32773C3.6698 7.32773 3.90045 7.21058 4.05665 6.97627L7.43584 1.8837C7.49197 1.80071 7.53347 1.71895 7.56031 1.6384C7.58716 1.55542 7.60059 1.47609 7.60059 1.40043C7.60059 1.19053 7.52736 1.01724 7.38092 0.880557C7.23692 0.741436 7.05874 0.671875 6.8464 0.671875C6.69996 0.671875 6.57548 0.701164 6.47297 0.759741C6.3729 0.815878 6.27771 0.913507 6.18741 1.05263L3.35006 5.50817L1.92956 3.80577C1.7758 3.62759 1.58298 3.53851 1.35111 3.53851C1.13388 3.53851 0.954491 3.60807 0.812929 3.74719C0.671367 3.88631 0.600586 4.06082 0.600586 4.27072C0.600586 4.36591 0.61523 4.45622 0.644519 4.54165C0.676248 4.62463 0.733605 4.71128 0.81659 4.80158L2.70205 7.02386C2.87534 7.22644 3.09623 7.32773 3.36471 7.32773Z" fill="white"/>
</svg>
